<svg width="16" height="16" viewBox="0 0 16 16" fill="none" xmlns="http://www.w3.org/2000/svg">
<g clip-path="url(#clip0_324_36402)">
<rect width="16" height="16" fill="white" fill-opacity="0.01"/>
<path d="M6.99966 1.99915C6.99966 2.26436 6.89431 2.51872 6.70677 2.70625C6.51923 2.89379 6.26488 2.99915 5.99966 2.99915C5.73445 2.99915 5.48009 2.89379 5.29256 2.70625C5.10502 2.51872 4.99966 2.26436 4.99966 1.99915C4.99966 1.73393 5.10502 1.47958 5.29256 1.29204C5.48009 1.1045 5.73445 0.999146 5.99966 0.999146C6.26488 0.999146 6.51923 1.1045 6.70677 1.29204C6.89431 1.47958 6.99966 1.73393 6.99966 1.99915ZM9.99966 1.99915C9.99966 2.26436 9.89431 2.51872 9.70677 2.70625C9.51923 2.89379 9.26488 2.99915 8.99966 2.99915C8.73445 2.99915 8.48009 2.89379 8.29256 2.70625C8.10502 2.51872 7.99966 2.26436 7.99966 1.99915C7.99966 1.73393 8.10502 1.47958 8.29256 1.29204C8.48009 1.1045 8.73445 0.999146 8.99966 0.999146C9.26488 0.999146 9.51923 1.1045 9.70677 1.29204C9.89431 1.47958 9.99966 1.73393 9.99966 1.99915ZM6.99966 4.99915C6.99966 5.26436 6.89431 5.51872 6.70677 5.70625C6.51923 5.89379 6.26488 5.99915 5.99966 5.99915C5.73445 5.99915 5.48009 5.89379 5.29256 5.70625C5.10502 5.51872 4.99966 5.26436 4.99966 4.99915C4.99966 4.73393 5.10502 4.47958 5.29256 4.29204C5.48009 4.1045 5.73445 3.99915 5.99966 3.99915C6.26488 3.99915 6.51923 4.1045 6.70677 4.29204C6.89431 4.47958 6.99966 4.73393 6.99966 4.99915ZM9.99966 4.99915C9.99966 5.26436 9.89431 5.51872 9.70677 5.70625C9.51923 5.89379 9.26488 5.99915 8.99966 5.99915C8.73445 5.99915 8.48009 5.89379 8.29256 5.70625C8.10502 5.51872 7.99966 5.26436 7.99966 4.99915C7.99966 4.73393 8.10502 4.47958 8.29256 4.29204C8.48009 4.1045 8.73445 3.99915 8.99966 3.99915C9.26488 3.99915 9.51923 4.1045 9.70677 4.29204C9.89431 4.47958 9.99966 4.73393 9.99966 4.99915ZM6.99966 7.99915C6.99966 8.26436 6.89431 8.51872 6.70677 8.70625C6.51923 8.89379 6.26488 8.99915 5.99966 8.99915C5.73445 8.99915 5.48009 8.89379 5.29256 8.70625C5.10502 8.51872 4.99966 8.26436 4.99966 7.99915C4.99966 7.73393 5.10502 7.47958 5.29256 7.29204C5.48009 7.1045 5.73445 6.99915 5.99966 6.99915C6.26488 6.99915 6.51923 7.1045 6.70677 7.29204C6.89431 7.47958 6.99966 7.73393 6.99966 7.99915ZM9.99966 7.99915C9.99966 8.26436 9.89431 8.51872 9.70677 8.70625C9.51923 8.89379 9.26488 8.99915 8.99966 8.99915C8.73445 8.99915 8.48009 8.89379 8.29256 8.70625C8.10502 8.51872 7.99966 8.26436 7.99966 7.99915C7.99966 7.73393 8.10502 7.47958 8.29256 7.29204C8.48009 7.1045 8.73445 6.99915 8.99966 6.99915C9.26488 6.99915 9.51923 7.1045 9.70677 7.29204C9.89431 7.47958 9.99966 7.73393 9.99966 7.99915ZM6.99966 10.9991C6.99966 11.2644 6.89431 11.5187 6.70677 11.7063C6.51923 11.8938 6.26488 11.9991 5.99966 11.9991C5.73445 11.9991 5.48009 11.8938 5.29256 11.7063C5.10502 11.5187 4.99966 11.2644 4.99966 10.9991C4.99966 10.7339 5.10502 10.4796 5.29256 10.292C5.48009 10.1045 5.73445 9.99915 5.99966 9.99915C6.26488 9.99915 6.51923 10.1045 6.70677 10.292C6.89431 10.4796 6.99966 10.7339 6.99966 10.9991ZM9.99966 10.9991C9.99966 11.2644 9.89431 11.5187 9.70677 11.7063C9.51923 11.8938 9.26488 11.9991 8.99966 11.9991C8.73445 11.9991 8.48009 11.8938 8.29256 11.7063C8.10502 11.5187 7.99966 11.2644 7.99966 10.9991C7.99966 10.7339 8.10502 10.4796 8.29256 10.292C8.48009 10.1045 8.73445 9.99915 8.99966 9.99915C9.26488 9.99915 9.51923 10.1045 9.70677 10.292C9.89431 10.4796 9.99966 10.7339 9.99966 10.9991ZM6.99966 13.9991C6.99966 14.2644 6.89431 14.5187 6.70677 14.7063C6.51923 14.8938 6.26488 14.9991 5.99966 14.9991C5.73445 14.9991 5.48009 14.8938 5.29256 14.7063C5.10502 14.5187 4.99966 14.2644 4.99966 13.9991C4.99966 13.7339 5.10502 13.4796 5.29256 13.292C5.48009 13.1045 5.73445 12.9991 5.99966 12.9991C6.26488 12.9991 6.51923 13.1045 6.70677 13.292C6.89431 13.4796 6.99966 13.7339 6.99966 13.9991ZM9.99966 13.9991C9.99966 14.2644 9.89431 14.5187 9.70677 14.7063C9.51923 14.8938 9.26488 14.9991 8.99966 14.9991C8.73445 14.9991 8.48009 14.8938 8.29256 14.7063C8.10502 14.5187 7.99966 14.2644 7.99966 13.9991C7.99966 13.7339 8.10502 13.4796 8.29256 13.292C8.48009 13.1045 8.73445 12.9991 8.99966 12.9991C9.26488 12.9991 9.51923 13.1045 9.70677 13.292C9.89431 13.4796 9.99966 13.7339 9.99966 13.9991Z" fill="#6C757D"/>
</g>
<defs>
<clipPath id="clip0_324_36402">
<rect width="16" height="16" fill="white"/>
</clipPath>
</defs>
</svg>
